<svg version="1.1"
    xmlns="http://www.w3.org/2000/svg"
    xmlns:xlink="http://www.w3.org/1999/xlink" width="512" height="512" viewBox="0 0 512 512">
    <title>mouse2 icon</title>
    <desc>mouse2 icon from the IconExperience.com G-Collection. Copyright by INCORS GmbH (www.incors.com).</desc>
    <defs>
        <radialGradient cx="125.56629" cy="245.73138" r="418.24558" fx="125.56629" fy="245.73138" gradientUnits="userSpaceOnUse" id="color-1">
            <stop offset="0" stop-color="#b3c0cd"/>
            <stop offset="0.43137" stop-color="#9aa8b6"/>
            <stop offset="1" stop-color="#717f8f"/>
        </radialGradient>
        <linearGradient x1="80" y1="16" x2="464.0005" y2="448.00015" gradientUnits="userSpaceOnUse" id="color-2">
            <stop offset="0" stop-color="#ffffff"/>
            <stop offset="1" stop-color="#c5e7fb"/>
        </linearGradient>
        <linearGradient x1="272" y1="16" x2="656.0005" y2="448.00015" gradientUnits="userSpaceOnUse" id="color-3">
            <stop offset="0" stop-color="#ffffff"/>
            <stop offset="1" stop-color="#c5e7fb"/>
        </linearGradient>
        <linearGradient x1="224" y1="48" x2="320" y2="48" gradientUnits="userSpaceOnUse" id="color-4">
            <stop offset="0" stop-color="#ffffff"/>
            <stop offset="0.50196" stop-color="#d8e0e8"/>
            <stop offset="1" stop-color="#91a0af"/>
        </linearGradient>
    </defs>
    <g fill="none" fill-rule="evenodd" stroke="none" stroke-width="1" stroke-linecap="butt" stroke-linejoin="miter" stroke-miterlimit="10" stroke-dasharray="" stroke-dashoffset="0" font-family="none" font-weight="none" font-size="none" text-anchor="none" style="mix-blend-mode: normal">
        <path d="M448,96l0,224c0,106 -86,192 -192,192c-106,0 -192,-86 -192,-192l0,-224c0,-53 43,-96 96,-96c64,0 128,0 192,0c53,0 96,43 96,96z" id="path35" fill="url(#color-1)"/>
        <path d="M208,272l32,0l0,-256l-80,0c-44,0 -80,36 -80,80l0,48c0,70.5 57.5,128 128,128z" id="path37" fill="url(#color-2)"/>
        <path d="M272,272l32,0c70.5,0 128,-57.5 128,-128l0,-48c0,-44 -36,-80 -80,-80l-80,0z" id="path39" fill="url(#color-3)"/>
        <path d="M256,32c26.5,0 48,21.5 48,48l0,48c0,26.5 -21.5,48 -48,48c-26.5,0 -48,-21.5 -48,-48l0,-48c0,-26.5 21.5,-48 48,-48z" id="path41" fill="#91a0af"/>
        <path d="M256,48c17.5,0 32,14.5 32,32l0,48c0,17.5 -14.5,32 -32,32c-17.5,0 -32,-14.5 -32,-32l0,-48c0,-17.5 14.5,-32 32,-32z" id="path43" fill="url(#color-4)"/>
    </g>
</svg>